HIERARCHY
ROOT root
{
	OFFSET 0.000000 0.000000 0.000000
	CHANNELS 6 Xposition Yposition Zposition Zrotation Yrotation Xrotation
	JOINT lhip
	{
		OFFSET 0.058581 -0.082280 -0.017664
		CHANNELS 3 Zrotation Yrotation Xrotation
		JOINT lknee
		{
			OFFSET 0.043451 -0.386469 0.008037
			CHANNELS 3 Zrotation Yrotation Xrotation
			JOINT lankle
			{
				OFFSET -0.014790 -0.426874 -0.037428
				CHANNELS 3 Zrotation Yrotation Xrotation
				JOINT ltoe
				{
					OFFSET 0.041054 -0.060286 0.122042
					CHANNELS 3 Zrotation Yrotation Xrotation
					End Site
					{
						OFFSET 0.000000 0.000000 0.000000
					}
				}
			}
		}
	}
	JOINT rhip
	{
		OFFSET -0.060310 -0.090513 -0.013543
		CHANNELS 3 Zrotation Yrotation Xrotation
		JOINT rknee
		{
			OFFSET -0.043257 -0.383688 -0.004843
			CHANNELS 3 Zrotation Yrotation Xrotation
			JOINT rankle
			{
				OFFSET 0.019056 -0.420046 -0.034562
				CHANNELS 3 Zrotation Yrotation Xrotation
				JOINT rtoe
				{
					OFFSET -0.034840 -0.062106 0.130323
					CHANNELS 3 Zrotation Yrotation Xrotation
					End Site
					{
						OFFSET 0.000000 0.000000 0.000000
					}
				}
			}
		}
	}
	JOINT lowerback
	{
		OFFSET 0.004439 0.124404 -0.038385
		CHANNELS 3 Zrotation Yrotation Xrotation
		JOINT upperback
		{
			OFFSET 0.004488 0.137956 0.026820
			CHANNELS 3 Zrotation Yrotation Xrotation
			JOINT chest
			{
				OFFSET -0.002265 0.056032 0.002855
				CHANNELS 3 Zrotation Yrotation Xrotation
				JOINT lowerneck
				{
					OFFSET -0.013390 0.211636 -0.033468
					CHANNELS 3 Zrotation Yrotation Xrotation
					JOINT upperneck
					{
						OFFSET 0.010113 0.088937 0.050410
						CHANNELS 3 Zrotation Yrotation Xrotation
						End Site
						{
							OFFSET 0.000000 0.000000 0.000000
						}
					}
				}
				JOINT lclavicle
				{
					OFFSET 0.071702 0.114000 -0.018898
					CHANNELS 3 Zrotation Yrotation Xrotation
					JOINT lshoulder
					{
						OFFSET 0.122921 0.045205 -0.019046
						CHANNELS 3 Zrotation Yrotation Xrotation
						JOINT lelbow
						{
							OFFSET 0.255332 -0.015649 -0.022946
							CHANNELS 3 Zrotation Yrotation Xrotation
							JOINT lwrist
							{
								OFFSET 0.265709 0.012698 -0.007375
								CHANNELS 3 Zrotation Yrotation Xrotation
								End Site
								{
									OFFSET 0.000000 0.000000 0.000000
								}
							}
						}
					}
				}
				JOINT rclavicle
				{
					OFFSET -0.082954 0.112472 -0.023707
					CHANNELS 3 Zrotation Yrotation Xrotation
					JOINT rshoulder
					{
						OFFSET -0.113228 0.046853 -0.008472
						CHANNELS 3 Zrotation Yrotation Xrotation
						JOINT relbow
						{
							OFFSET -0.260127 -0.014369 -0.031269
							CHANNELS 3 Zrotation Yrotation Xrotation
							JOINT rwrist
							{
								OFFSET -0.269108 0.006794 -0.006027
								CHANNELS 3 Zrotation Yrotation Xrotation
								End Site
								{
									OFFSET 0.000000 0.000000 0.000000
								}
							}
						}
					}
				}
			}
		}
	}
}
MOTION
Frames: 17
Frame Time: 0.033333
-0.089153 1.155645 1.003052 63.527104 1.565968 85.128968 2.504188 6.562714 -11.766316 -4.662549 3.274360 28.815495 0.656135 29.276714 -25.800642 0.000000 -0.000000 0.000000 3.779653 -0.130068 -22.382050 -2.569435 4.665362 19.971559 0.225236 -21.768813 -20.533376 0.000000 -0.000000 0.000000 0.517138 -5.172299 17.344447 0.511951 -5.171410 -7.177854 2.171086 -2.316462 6.512712 0.663072 -4.943353 9.109807 7.416560 -9.334353 -13.413231 18.927747 2.558386 -12.085422 2.499094 -15.851595 -27.608446 35.302767 -31.296014 -19.619783 3.339183 -21.179612 34.121572 -24.835310 -6.676165 -11.200079 0.101147 3.297427 -29.585512 -26.642227 32.080037 -10.447308 -0.944244 10.918612 11.220136 
-0.103910 1.155438 1.006079 58.437960 1.884244 85.546479 3.394737 7.825754 -11.623122 -4.051937 4.818855 26.617331 0.932135 30.994567 -24.401277 0.000000 -0.000000 0.000000 3.402226 0.314331 -22.059671 -2.526206 3.631624 24.027274 -0.043803 -22.454524 -19.926679 0.000000 -0.000000 0.000000 0.632739 -5.490269 17.243743 0.644371 -4.933607 -7.257089 2.120876 -1.909026 6.469129 1.064270 -3.501589 9.382976 6.658755 -8.843856 -13.380641 19.437693 2.500751 -11.544269 0.875289 -14.955662 -26.085433 30.901220 -27.918772 -14.851074 11.693203 -25.002471 29.117252 -24.878225 -6.031546 -10.195853 1.301142 3.700752 -29.419572 -24.118799 27.910873 -8.318339 -10.219780 12.771537 10.792809 
-0.117066 1.154329 1.008692 53.391692 1.800699 85.846837 3.673004 8.940266 -10.928351 -3.441487 5.725635 24.136186 1.804701 32.342405 -22.958323 0.000000 -0.000000 0.000000 2.432463 -0.262113 -21.317495 -2.575680 3.257749 26.809127 -0.040596 -23.352259 -19.886000 0.000000 -0.000000 0.000000 0.588305 -5.368722 17.071121 0.702862 -4.594624 -6.989022 1.937205 -1.515830 6.289869 1.591435 -3.295206 9.089901 5.783654 -7.798856 -13.405240 18.741946 2.611605 -10.365517 -1.639553 -14.349862 -24.052478 27.006023 -24.720292 -9.966428 18.822790 -25.955017 24.031272 -23.550587 -5.969201 -9.602320 4.309826 5.143017 -29.191469 -23.101195 23.921212 -7.813211 -17.309364 12.541225 9.539790 
-0.129627 1.152758 1.010511 47.971733 1.792221 86.537530 3.776028 9.390328 -10.697934 -2.834896 6.009244 21.988624 1.711732 32.970475 -23.406451 0.000000 -0.000000 0.000000 1.298640 -0.896625 -20.951722 -2.793583 2.811350 27.796342 0.131424 -23.250898 -20.126732 0.000000 -0.000000 0.000000 0.937571 -4.841004 16.423553 0.624796 -3.911843 -6.767075 1.653482 -0.897622 6.385630 1.517857 -2.819755 8.265717 5.888742 -8.212344 -13.508974 16.727359 2.339234 -9.243811 -4.672809 -13.224119 -21.165718 23.718931 -21.133878 -4.979701 23.298855 -27.798007 21.436831 -20.891252 -5.607825 -9.202087 8.514931 5.288027 -28.673007 -22.005695 21.297540 -8.970011 -21.984847 12.536810 7.982465 
-0.142055 1.150178 1.012303 42.187474 1.622940 87.106820 3.194260 8.314208 -10.486807 -2.401549 4.055419 20.388755 1.824214 32.629618 -24.071242 0.000000 -0.000000 0.000000 0.135231 -1.388322 -20.466258 -3.071990 3.289523 26.978755 0.198436 -23.160744 -20.028790 0.000000 -0.000000 0.000000 1.202698 -3.981453 16.037907 0.527438 -2.964098 -6.127969 1.397320 -0.255040 5.981706 1.419277 -2.531044 6.760588 5.015748 -8.535968 -13.443730 13.976325 3.285884 -7.711528 -9.394059 -12.270632 -17.964642 20.682789 -19.048010 -1.468792 25.879028 -29.231249 19.358916 -17.206301 -5.548951 -7.883448 14.435675 5.648671 -27.212832 -21.870916 19.020421 -9.392397 -25.560381 12.380675 7.955539 
-0.153410 1.146168 1.013753 35.942397 1.155342 87.235152 2.168766 5.551142 -9.312920 -2.771391 -0.684038 18.908400 1.656058 30.548714 -24.602904 0.000000 -0.000000 0.000000 -1.247278 -1.949912 -19.588530 -3.489767 3.723145 24.762282 0.229069 -23.045972 -20.400126 0.000000 -0.000000 0.000000 1.239602 -2.955995 15.831587 0.332645 -1.964631 -4.988604 1.040108 0.664746 5.702590 1.557630 -1.821334 5.560980 4.709585 -9.106889 -14.321982 11.707177 5.578172 -6.253468 -16.380208 -11.683979 -14.206659 17.806006 -16.714200 2.566716 26.989097 -30.031126 17.226307 -13.728946 -6.027155 -6.258339 22.963833 6.598580 -24.482648 -21.784653 17.264678 -9.210572 -28.772605 12.970986 6.267251 
-0.162552 1.139743 1.013957 28.817599 0.737755 87.430060 0.918543 1.955529 -8.153679 -2.965517 -5.895948 18.626462 1.531979 28.054122 -25.119372 0.000000 -0.000000 0.000000 -2.696783 -2.749220 -19.477461 -3.840932 2.250616 22.494385 0.639085 -22.620485 -20.457995 0.000000 -0.000000 0.000000 1.642433 -1.727223 15.608551 0.017322 -0.564267 -4.141216 0.704683 1.442921 5.067808 1.383575 -0.143059 4.550820 3.659810 -10.192594 -14.498024 10.221561 8.472472 -4.554002 -26.018528 -10.863991 -10.795307 15.874115 -13.878131 6.202985 20.825144 -30.590759 18.912698 -10.770968 -6.221047 -4.502854 33.777420 7.260659 -21.102104 -22.194358 16.152586 -8.200431 -26.031352 13.771687 5.110836 
-0.171809 1.130449 1.012896 21.531813 0.423627 87.970367 0.478075 -0.531056 -7.363828 -3.290892 -7.961529 19.091253 1.745492 26.356568 -25.497914 0.000000 -0.000000 0.000000 -3.405304 -3.915541 -20.235724 -5.196204 -0.703410 20.690292 0.075002 -22.716825 -20.049547 0.000000 -0.000000 0.000000 1.971563 -0.449395 15.041660 0.157728 0.921695 -2.998239 0.477122 1.691535 3.989227 1.912091 2.233576 2.729962 1.728556 -11.645441 -14.088183 9.142689 12.439847 -2.958324 -37.955631 -8.671084 -6.403926 14.109656 -12.453528 8.220253 16.584356 -30.768476 17.716305 -7.102302 -6.627331 -2.870995 43.935086 8.075670 -16.674795 -21.826729 14.685652 -7.451662 -25.865303 14.613514 3.486990 
-0.181361 1.120085 1.010419 14.429121 -0.084992 88.567211 0.857880 -0.304272 -6.942293 -2.978832 -5.113448 19.901614 2.007937 25.295700 -24.142196 0.000000 -0.000000 0.000000 -4.048161 -5.396203 -21.372279 -6.469507 -6.111092 19.244374 -1.132610 -24.255770 -19.585361 0.000000 -0.000000 0.000000 1.940756 -0.199790 14.813659 0.243602 2.135740 -1.765745 0.054766 1.533476 2.560792 3.774523 4.924148 -0.277969 -1.387413 -12.777840 -12.666703 8.387791 17.983305 -1.100520 -50.209863 -5.359807 -2.344205 13.028631 -11.208576 9.907643 4.916588 -26.390596 20.900345 -2.784280 -7.871101 -1.078331 54.197576 9.395596 -9.535610 -20.430553 13.746822 -4.293326 -17.735257 12.932280 2.195544 
-0.190791 1.106592 1.005534 7.717465 -0.987778 89.465835 1.125607 2.800775 -6.312842 -2.298929 -1.243503 19.736014 1.913229 24.747630 -23.831681 0.000000 -0.000000 0.000000 -4.386934 -7.356956 -23.135295 -8.091791 -11.579915 19.315875 -2.390309 -25.713549 -19.222129 0.000000 -0.000000 0.000000 1.570752 -0.629670 14.472115 0.300129 3.181856 -0.750730 -0.505155 1.546611 0.979500 5.429177 5.965995 -2.781512 -3.885052 -13.709407 -11.737677 4.619001 23.058025 -0.297082 -58.554611 -0.615224 0.893721 11.246222 -10.609438 12.587138 -2.785024 -22.386006 23.417154 2.377234 -8.944217 1.171767 62.228634 8.214945 -2.278782 -17.518376 12.429168 1.168795 -14.223661 13.489850 2.208009 
-0.201958 1.092057 0.999157 1.789121 -1.682449 90.363291 2.222542 5.418543 -5.699919 -2.922126 2.124351 20.440772 1.172935 23.841372 -24.478010 0.000000 -0.000000 0.000000 -4.346893 -9.380845 -24.702217 -8.718779 -16.766745 20.213232 -3.335286 -26.436101 -18.222814 0.000000 -0.000000 0.000000 1.337793 -1.322816 15.153779 0.632553 3.836727 -2.150583 -0.841580 1.256338 0.386845 6.196091 6.696922 -4.205181 -5.930027 -14.876219 -11.032551 0.436543 29.368882 -0.832771 -64.893728 3.051752 3.767216 8.722518 -7.511727 11.658217 -8.264440 -21.778470 23.185047 7.584492 -11.164393 3.416062 67.700326 6.409946 4.075942 -13.752285 9.126794 5.069447 -10.081248 13.785139 1.866399 
-0.215175 1.076833 0.993359 -4.414879 -2.440889 91.365309 3.156756 6.959609 -5.227869 -3.998714 4.863335 22.414207 0.582264 24.243541 -25.803100 0.000000 -0.000000 0.000000 -3.688749 -10.477858 -26.348578 -8.227958 -18.868500 21.591330 -4.444658 -26.051450 -16.183134 0.000000 -0.000000 0.000000 1.601267 -1.919268 14.995100 0.377225 4.435147 -2.422887 -1.231023 1.460336 -0.222979 6.390489 7.492693 -6.063308 -7.643382 -15.231952 -10.064910 -4.111682 32.021367 -2.077283 -69.344358 6.879078 3.769301 9.337071 -4.324823 9.616747 -12.353999 -18.031878 22.455355 11.863555 -13.216669 1.936979 71.135568 1.193831 5.100747 -10.895813 4.730160 7.748454 -6.423976 13.926084 2.898841 
-0.229576 1.062683 0.985637 -10.849408 -3.436634 92.194998 3.383968 6.713300 -4.857644 -4.012783 8.293235 25.684632 1.350510 25.084082 -25.068319 0.000000 -0.000000 0.000000 -3.995028 -9.400836 -28.867513 -5.929856 -16.289887 24.437610 -5.474056 -22.048821 -13.397357 0.000000 -0.000000 0.000000 2.215036 -2.292707 13.761045 0.207995 4.647183 -1.724825 -2.452065 1.456249 0.383822 5.607062 6.300068 -7.040392 -7.060216 -13.602705 -11.508572 -5.334042 32.909712 -2.122445 -72.745091 8.525914 7.446068 9.583192 -1.747983 6.038682 -14.104402 -15.100010 16.851213 12.541833 -16.240900 -0.626998 74.359764 -3.040371 9.543171 -9.804637 -0.272109 8.033203 -1.903686 11.238414 1.666607 
-0.248235 1.050240 0.978200 -17.438305 -3.130246 91.191840 5.560680 7.615793 -3.983544 -4.233378 10.334687 31.921879 0.854566 24.622229 -22.697486 0.000000 -0.000000 0.000000 -2.742125 -5.376269 -29.231306 -5.198786 -13.455316 27.638842 -5.507074 -21.937101 -14.309001 0.000000 -0.000000 0.000000 2.286882 -3.064933 15.161417 0.707657 4.774816 -0.802416 -2.349339 1.295657 0.624908 5.235220 7.057498 -7.777055 -6.108621 -13.228047 -13.425608 -3.592892 31.817505 0.043506 -74.233592 9.263785 8.284873 9.587729 -2.730588 9.248294 -16.110835 -12.569395 16.303070 11.755962 -16.635484 -0.395580 73.117838 -3.905758 8.913450 -10.684572 -0.608547 7.051418 -0.329537 9.046785 -0.680188 
-0.268924 1.036031 0.973962 -23.435016 -3.047481 90.776001 8.220810 8.420145 -5.231086 -4.672521 12.947941 40.517574 1.065464 23.860504 -16.342183 0.000000 -0.000000 0.000000 -1.037520 -2.089468 -29.039877 -4.868092 -11.111720 29.977453 -6.198062 -21.081867 -16.777241 0.000000 -0.000000 0.000000 1.838049 -3.685294 15.167591 1.212436 3.890521 -0.025068 -1.702225 0.157255 0.666812 5.399408 8.207915 -6.089355 -5.919727 -11.762106 -14.702766 -1.185640 31.086229 1.150769 -71.257504 9.504021 5.398285 11.162433 -2.944350 9.417612 -16.850890 -10.793500 18.873762 9.652128 -17.367947 -0.946693 67.883710 -1.815219 6.858037 -11.835063 0.648954 6.258269 0.597439 8.166668 1.420281 
-0.287522 1.023008 0.972262 -29.410953 -3.242279 90.454520 9.620963 8.258808 -7.474855 -4.284036 14.248396 49.614191 2.605096 23.238190 -8.959661 0.000000 -0.000000 0.000000 0.448091 -0.006535 -28.227911 -4.066542 -8.455152 31.162801 -7.248008 -20.552708 -17.762637 0.000000 -0.000000 0.000000 1.588793 -4.239620 14.904941 1.391407 2.617678 0.207476 -1.297377 -0.545635 0.690040 5.173940 8.532695 -3.597473 -5.493843 -10.009102 -14.783860 1.875747 28.559011 2.394706 -65.208519 9.755995 1.775576 11.884678 -3.150164 10.141233 -16.469390 -9.943792 19.746596 6.056576 -15.905642 -0.989288 61.318655 1.829030 3.956102 -12.143588 2.833285 6.369299 -0.008971 7.750870 3.735960 
-0.302222 1.011597 0.972052 -35.461438 -3.526191 89.766943 10.286019 8.460855 -9.103171 -6.535358 12.673129 55.985973 2.012395 19.938783 -7.862646 0.000000 -0.000000 0.000000 1.477401 1.515304 -26.710119 -2.431629 -4.794834 31.702411 -6.765486 -19.967886 -19.445704 0.000000 -0.000000 0.000000 1.610762 -4.841523 14.797260 1.179030 1.501787 1.018151 -1.018909 0.066650 0.777183 4.661061 8.626886 -1.600806 -4.495646 -9.113329 -15.425877 4.570060 24.809719 2.661022 -56.489913 9.085943 -1.194762 10.970203 -2.879679 12.773812 -17.337859 -9.071056 23.616747 1.695644 -12.289113 -0.578910 53.524541 6.272063 -1.076126 -11.527256 2.831898 5.584202 -0.404762 8.020203 5.281343 
